Coordinates
version=1
nRows=17
nColumns=40
inDegrees=yes

Units are S.I. units (second, meters, Newtons, ...)
If the header above contains a line with 'inDegrees', this indicates whether rotational values are in degrees (yes) or radians (no).

endheader
time	pelvis_tilt	pelvis_list	pelvis_rotation	pelvis_tx	pelvis_ty	pelvis_tz	hip_flexion_r	hip_adduction_r	hip_rotation_r	knee_angle_r	knee_angle_r_beta	ankle_angle_r	subtalar_angle_r	mtp_angle_r	hip_flexion_l	hip_adduction_l	hip_rotation_l	knee_angle_l	knee_angle_l_beta	ankle_angle_l	subtalar_angle_l	mtp_angle_l	lumbar_extension	lumbar_bending	lumbar_rotation	arm_flex_r	arm_add_r	arm_rot_r	elbow_flex_r	pro_sup_r	wrist_flex_r	wrist_dev_r	arm_flex_l	arm_add_l	arm_rot_l	elbow_flex_l	pro_sup_l	wrist_flex_l	wrist_dev_l
      0.64800000	     15.13742092	     -2.68033908	     -1.66211162	      0.99334079	      0.93176556	     -0.31147771	    -29.71132640	      2.30286178	     -2.03007180	     28.61105361	      0.49935709	    -15.07457012	      0.00000000	      0.00000000	     17.46879776	     -2.24142142	      2.16455455	     25.58182540	      0.44648708	    -18.74279335	      0.00000000	      0.00000000	    -29.82606107	      0.34761445	      5.19526468	     10.37016649	    -18.50925754	     21.41892238	     49.97716596	     75.13652506	      0.00000000	      0.00000000	      2.66433740	    -20.96352272	     18.70123206	     42.08228755	     82.33978803	      0.00000000	      0.00000000
      0.65200000	     15.17511898	     -2.45500554	     -1.27208184	      1.00062327	      0.93181478	     -0.31226572	    -29.70744987	      2.16206381	     -2.41009610	     29.11620496	      0.50817364	    -16.61336360	      0.00000000	      0.00000000	     17.49088839	     -1.79276861	      2.83313886	     26.47618035	      0.46209652	    -18.51281771	      0.00000000	      0.00000000	    -29.75590878	      0.26072313	      4.65423796	     10.05381223	    -18.31774998	     21.04751609	     49.93494484	     74.93656461	      0.00000000	      0.00000000	      2.39807858	    -21.04817898	     18.41573184	     42.14885805	     82.41565794	      0.00000000	      0.00000000
      0.65600000	     15.30466913	     -2.26578309	     -1.10510713	      1.00754554	      0.93220809	     -0.31275024	    -29.70035586	      1.94821963	     -2.58060721	     29.72144790	      0.51873712	    -18.22552958	      0.00000000	      0.00000000	     17.30676172	     -1.48078221	      3.11775186	     27.18438378	      0.47445700	    -18.34887312	      0.00000000	      0.00000000	    -29.80489844	      0.10128451	      4.35819824	      9.83461787	    -18.13387087	     20.89685638	     49.62163340	     74.90825853	      0.00000000	      0.00000000	      2.28649779	    -21.11778015	     18.43183244	     42.13666591	     82.46357313	      0.00000000	      0.00000000
      0.66000000	     15.41258026	     -2.06018456	     -1.01204396	      1.01443046	      0.93270884	     -0.31310009	    -29.67381046	      1.74117253	     -2.40165843	     30.34137381	      0.52955687	    -19.49596662	      0.00000000	      0.00000000	     17.10615007	     -1.14922553	      3.43715816	     27.82244538	      0.48559328	    -18.21101287	      0.00000000	      0.00000000	    -29.84631468	     -0.12019511	      4.10552177	      9.56284223	    -17.95228486	     20.87463699	     49.33740840	     75.00038519	      0.00000000	      0.00000000	      2.19954716	    -21.14865894	     18.49764144	     42.07827313	     82.53209961	      0.00000000	      0.00000000
      0.66400000	     15.45808819	     -1.82629093	     -0.55719564	      1.02209010	      0.93291513	     -0.31369152	    -29.68601749	      1.57297486	     -3.27496640	     30.65267087	      0.53499003	    -21.90250052	      0.00000000	      0.00000000	     16.98836601	     -0.72402441	      3.90198282	     28.61562647	      0.49943690	    -17.33077228	      0.00000000	      0.00000000	    -29.70980195	     -0.21761705	      3.56125513	      9.16110499	    -17.68967936	     20.61710430	     49.00885138	     75.48739908	      0.00000000	      0.00000000	      1.87477511	    -21.38159383	     18.61998265	     42.36142173	     82.83401864	      0.00000000	      0.00000000
      0.66800000	     15.61673218	     -1.58077969	     -0.48531322	      1.02938642	      0.93345434	     -0.31417653	    -29.67584303	      1.20019850	     -3.61140887	     31.23498812	      0.54515338	    -23.80051978	      0.00000000	      0.00000000	     16.69175726	     -0.41203497	      3.80221535	     29.27597312	      0.51096212	    -16.79336183	      0.00000000	      0.00000000	    -29.73407953	     -0.46226295	      3.33590621	      8.85424027	    -17.53904101	     20.48147934	     48.71778367	     75.63528103	      0.00000000	      0.00000000	      1.63316142	    -21.54333193	     19.12371439	     42.35926402	     83.67037361	      0.00000000	      0.00000000
      0.67200000	     15.74936362	     -1.45017855	     -0.20067942	      1.03654717	      0.93396310	     -0.31465884	    -29.66081108	      1.10742437	     -3.90225383	     31.71812204	      0.55358566	    -25.61903513	      0.00000000	      0.00000000	     16.41114430	     -0.12086018	      4.25579343	     29.89734772	      0.52180716	    -16.29033697	      0.00000000	      0.00000000	    -29.77707976	     -0.50842487	      2.99182649	      8.35452137	    -17.46228117	     20.33275386	     48.87030897	     75.68077662	      0.00000000	      0.00000000	      1.51702618	    -21.62006544	     18.97926826	     42.34738631	     83.96222908	      0.00000000	      0.00000000
      0.67600000	     15.92179765	     -1.21919808	      0.01549429	      1.04351404	      0.93458772	     -0.31529718	    -29.65218559	      0.88615451	     -4.10616334	     32.24764120	      0.56282751	    -27.30500654	      0.00000000	      0.00000000	     16.05668116	      0.24079399	      4.47176254	     30.45031176	      0.53145820	    -15.84654183	      0.00000000	      0.00000000	    -29.85696774	     -0.67201005	      2.66232418	      8.05828668	    -17.35668612	     20.21657177	     48.67622764	     75.70238887	      0.00000000	      0.00000000	      1.40433143	    -21.72575332	     19.11718687	     42.47161985	     84.31020240	      0.00000000	      0.00000000
      0.68000000	     16.11137796	     -1.05316430	      0.24641327	      1.05033996	      0.93529679	     -0.31569079	    -29.62776565	      0.74801453	     -4.24967189	     32.79339155	      0.57235266	    -28.81523346	      0.00000000	      0.00000000	     15.64451341	      0.52556750	      4.69531155	     30.93164276	      0.53985901	    -15.30529238	      0.00000000	      0.00000000	    -29.97476035	     -0.78271094	      2.34626957	      7.77848491	    -17.22071158	     20.11939458	     48.50437618	     75.67889392	      0.00000000	      0.00000000	      1.33772524	    -21.86378828	     19.24273473	     42.55652916	     84.47929476	      0.00000000	      0.00000000
      0.68400000	     16.32024550	     -0.86155134	      0.39969652	      1.05724435	      0.93600358	     -0.31609938	    -29.61121270	      0.57614518	     -4.24195142	     33.38091801	      0.58260693	    -30.14635380	      0.00000000	      0.00000000	     15.21858553	      0.79036651	      4.72118313	     31.46776628	      0.54921613	    -14.76759516	      0.00000000	      0.00000000	    -30.09881380	     -0.94810517	      2.09587608	      7.49233179	    -17.09423565	     19.99918853	     48.28633359	     75.65467766	      0.00000000	      0.00000000	      1.27453263	    -21.97139871	     19.33443747	     42.62920514	     84.56514577	      0.00000000	      0.00000000
      0.68800000	     16.51449387	     -0.74441219	      0.57588753	      1.06411892	      0.93677779	     -0.31623584	    -29.58800357	      0.56876843	     -4.07839292	     33.90975840	      0.59183693	    -31.35490062	      0.00000000	      0.00000000	     14.72250284	      0.97683920	      4.87220966	     31.83761901	      0.55567128	    -14.18992499	      0.00000000	      0.00000000	    -30.21393429	     -1.05209608	      1.85294555	      7.22649002	    -16.92692370	     19.88537808	     48.07743535	     75.64318468	      0.00000000	      0.00000000	      1.22295383	    -22.13013628	     19.34590984	     42.70570590	     84.52026803	      0.00000000	      0.00000000
      0.69200000	     16.74259322	     -0.63780071	      0.76284325	      1.07085298	      0.93762714	     -0.31638480	    -29.55746918	      0.58082493	     -3.86377558	     34.51700402	      0.60243537	    -32.30917460	      0.00000000	      0.00000000	     14.20642874	      1.13696976	      4.96160554	     32.21259740	      0.56221589	    -13.74118184	      0.00000000	      0.00000000	    -30.38681827	     -1.13907866	      1.59796410	      7.03163150	    -16.74105642	     19.78831742	     47.76272157	     75.64692321	      0.00000000	      0.00000000	      1.16575660	    -22.30390121	     19.52670159	     42.85444059	     84.54836439	      0.00000000	      0.00000000
      0.69600000	     16.98165439	     -0.50093357	      0.97168723	      1.07757689	      0.93850194	     -0.31665800	    -29.51304798	      0.57096654	     -3.72526823	     35.14922974	      0.61346979	    -33.26472658	      0.00000000	      0.00000000	     13.64806280	      1.30827127	      4.99668549	     32.54039011	      0.56793695	    -13.24663315	      0.00000000	      0.00000000	    -30.53260978	     -1.21849278	      1.33480113	      6.79898326	    -16.62877097	     19.72607683	     47.50974790	     75.64556111	      0.00000000	      0.00000000	      1.16250227	    -22.43789020	     19.69926607	     42.89020849	     84.58004663	      0.00000000	      0.00000000
      0.70000000	     17.29043522	     -0.37240840	      1.09230275	      1.08420767	      0.93946680	     -0.31694879	    -29.47148349	      0.47282639	     -3.71081498	     35.84395499	      0.62559503	    -34.25443020	      0.00000000	      0.00000000	     12.95793840	      1.45834940	      4.96145741	     32.79586826	      0.57239588	    -12.59687855	      0.00000000	      0.00000000	    -30.79228362	     -1.32252462	      1.12271764	      6.56659765	    -16.50481785	     19.66979316	     47.32888695	     75.62686215	      0.00000000	      0.00000000	      1.13960357	    -22.59027953	     19.87258384	     43.07101144	     84.59382054	      0.00000000	      0.00000000
      0.70400000	     17.54704476	     -0.21962438	      1.30630600	      1.09076296	      0.94045273	     -0.31732276	    -29.41205800	      0.45772574	     -3.57092128	     36.49535380	      0.63696409	    -34.84725515	      0.00000000	      0.00000000	     12.32441686	      1.58560663	      4.80812742	     32.97580539	      0.57553638	    -12.27820208	      0.00000000	      0.00000000	    -30.99737306	     -1.40478602	      0.82401062	      6.35230421	    -16.39054917	     19.59826735	     47.16570485	     75.61436715	      0.00000000	      0.00000000	      1.17365964	    -22.70566462	     19.95044185	     43.05194347	     84.59134807	      0.00000000	      0.00000000
      0.70800000	     17.88373227	     -0.09963785	      1.38846628	      1.09716876	      0.94157492	     -0.31784801	    -29.33960387	      0.29857532	     -3.61400462	     37.25809915	      0.65027650	    -35.39443254	      0.00000000	      0.00000000	     11.53500529	      1.71203716	      4.73011749	     33.07709980	      0.57730430	    -11.74029439	      0.00000000	      0.00000000	    -31.31219696	     -1.48235976	      0.67634379	      6.15116858	    -16.34764801	     19.54438605	     46.96599569	     75.59838402	      0.00000000	      0.00000000	      1.19850364	    -22.76253175	     20.06058972	     43.17581502	     84.58635871	      0.00000000	      0.00000000
      0.71200000	     18.23371031	      0.00932285	      1.48612862	      1.10336310	      0.94274171	     -0.31844322	    -29.24239256	      0.14800350	     -3.68196675	     38.05974698	      0.66426790	    -35.73068417	      0.00000000	      0.00000000	     10.71329700	      1.82019769	      4.61189732	     33.11153178	      0.57790525	    -11.26372774	      0.00000000	      0.00000000	    -31.66024653	     -1.53481606	      0.49276501	      6.01750124	    -16.33634715	     19.49147758	     46.77065390	     75.58437132	      0.00000000	      0.00000000	      1.26274345	    -22.84401526	     20.15790594	     43.30153575	     84.58084504	      0.00000000	      0.00000000
